<svg width="500" height="500" viewBox="0 0 500 500" fill="none" xmlns="http://www.w3.org/2000/svg">
<g clip-path="url(#clip0_2_2)">
<rect width="500" height="500" fill="black"/>
<path d="M-129.266 391.391C-88.4412 515.201 45.4573 583.995 169.348 543.695C293.544 503.297 361.666 369.243 321.207 244.861L310.849 213.016C294.189 161.8 322.244 106.593 373.383 89.9586C424.53 73.3216 479.687 101.461 496.347 152.678C501.114 167.333 516.846 175.357 531.479 170.597L610.979 144.738C625.62 139.975 633.613 124.234 628.846 109.578C588.386 -14.8041 454.433 -83.1348 330.229 -42.7339C206.033 -2.33542 137.906 131.728 178.365 256.111L188.724 287.955C205.386 339.179 177.326 394.371 126.194 411.003C75.0548 427.638 19.8951 399.515 3.23307 348.291C-1.5341 333.636 -17.2658 325.612 -31.8994 330.372L-111.399 356.231C-126.03 360.999 -134.033 376.735 -129.266 391.391Z" fill="white"/>
</g>
<defs>
<clipPath id="clip0_2_2">
<rect width="500" height="500" fill="white"/>
</clipPath>
</defs>
</svg>
